From Paris with Love*2010*[BluRay][1080p][ENG, POL, Multisub]

General information:
Country: France
Release: 4 February 2010
Genre: Action, Crime, Thriller
Director: Pierre Morel
Screenplay: Luc Besson, Adi Hasak
Original Music: Dave Buckley
Cinematography by: Michel Abramowicz
Duration: 1h 32mn
Language: English, Polish
Subtitles: English, Polish, Croatian, Hungarian, Norwegian, Romanian, Spanish, Serbian, Swedish
Rating: 6.7/10 - 6230 votes

Cast:
John Travolta  ...  Charlie Wax  
Jonathan Rhys Meyers  ...  James Reece  
Kasia Smutniak  ...  Caroline  
Richard Durden  ...  Ambassador Bennington  
Yin Bing  ...  M. Wong  
Amber Rose Revah  ...  Nichole  
Eric Godon  ...  Foreign Minister  
François Bredon  ...  The Thug  
Chems Dahmani  ...  Rashid (as Chems Eddine Dahmani)  
Sami Darr  ...  The Pimp  
Julien Hagnery  ...  Chinese Punk  
Mostéfa Stiti  ...  Dir Yasin  
Rebecca Dayan  ...  Foreign Minister's Aide  
Michaël Vander-Meiren  ...  Airport Security Official  
Didier Constant  ...  Customs Official  

Plot:
In Paris, a young employee in the office of the US Ambassador hooks up with an American spy looking to stop a terrorist attack in the city. 

Specifications:
General
Format                           : Matroska
Overall bit rate                 : 20.2 Mbps

Video
Format                           : AVC
Format/Info                      : Advanced Video Codec
Format profile                   : High@L4.1
Format settings, CABAC           : Yes
Format settings, ReFrames        : 5 frames
Muxing mode                      : Container profile=Unknown@4.1
Codec ID                         : V_MPEG4/ISO/AVC
Nominal bit rate                 : 19.0 Mbps
Width                            : 1 920 pixels
Height                           : 820 pixels
Display aspect ratio             : 2.35:1
Frame rate                       : 23.976 fps

Audio 1
Format                           : AC-3
Format/Info                      : Audio Coding 3
Mode extension                   : CM (complete main)
Codec ID                         : A_AC3
Bit rate mode                    : Constant
Bit rate                         : 640 Kbps
Channel(s)                       : 6 channels
Channel positions                : Front: L C R, Side: L R, LFE
Sampling rate                    : 48.0 KHz
Stream size                      : 425 MiB (3%)
Title                            : English

Audio 2
Format                           : AAC
Format/Info                      : Advanced Audio Codec
Format version                   : Version 4
Format profile                   : LC
Format settings, SBR             : No
Codec ID                         : A_AAC
Channel(s)                       : 2 channels
Channel positions                : Front: L R
Sampling rate                    : 48.0 KHz
Title                            : Englisch commentary

Audio 3
Format                           : AC-3
Format/Info                      : Audio Coding 3
Mode extension                   : CM (complete main)
Codec ID                         : A_AC3
Bit rate mode                    : Constant
Bit rate                         : 448 Kbps
Channel(s)                       : 6 channels
Channel positions                : Front: L C R, Side: L R, LFE
Sampling rate                    : 48.0 KHz
Stream size                      : 297 MiB (2%)
Language                         : Polish

Text 
Format                           : UTF-8
Codec ID                         : S_TEXT/UTF8
Codec ID/Info                    : UTF-8 Plain Text
